<svg width="80" height="80" viewBox="0 0 80 80" fill="none" xmlns="http://www.w3.org/2000/svg">
<rect x="1.14286" y="1.14286" width="77.7143" height="77.7143" rx="17.1429" stroke="black" stroke-opacity="0.4" stroke-width="2.28571"/>
<path d="M40.0005 65.595C25.8815 65.595 14.4053 54.1188 14.4053 39.9998C14.4053 25.8807 25.8815 14.4045 40.0005 14.4045C54.1196 14.4045 65.5957 25.8807 65.5957 39.9998C65.5957 54.1188 54.1196 65.595 40.0005 65.595ZM40.0005 17.976C27.8577 17.976 17.9767 27.8569 17.9767 39.9998C17.9767 52.1426 27.8577 62.0236 40.0005 62.0236C52.1434 62.0236 62.0243 52.1426 62.0243 39.9998C62.0243 27.8569 52.1434 17.976 40.0005 17.976Z" fill="#171717"/>
<path d="M40.0004 48.6426C36.8575 48.6426 34.2861 46.0711 34.2861 42.9282V37.0474C34.2861 33.9045 36.8575 31.333 40.0004 31.333C43.1433 31.333 45.7147 33.9045 45.7147 37.0474V42.9282C45.7147 46.0949 43.1433 48.6426 40.0004 48.6426ZM40.0004 34.9283C38.8337 34.9283 37.8576 35.8807 37.8576 37.0712V42.9521C37.8576 44.1425 38.8099 45.095 40.0004 45.095C41.1909 45.095 42.1432 44.1425 42.1432 42.9521V37.0712C42.1432 35.8807 41.1671 34.9283 40.0004 34.9283Z" fill="#171717"/>
<path d="M40 56.2379C32.4524 56.2379 26.3096 50.0951 26.3096 42.5475V37.4522C26.3096 29.9046 32.4524 23.7617 40 23.7617C47.0477 23.7617 52.9048 29.0475 53.6191 36.0475C53.7143 37.0237 53.0001 37.9045 52.0239 37.9998C51.0477 38.1188 50.1667 37.3808 50.0715 36.4046C49.5477 31.2379 45.2143 27.3331 40 27.3331C34.4286 27.3331 29.881 31.8808 29.881 37.4522V42.5475C29.881 48.1189 34.4286 52.6665 40 52.6665C45.2381 52.6665 49.6667 48.5712 50.0953 43.3569C50.1667 42.3807 51.0239 41.6426 52.0239 41.714C53.0001 41.7855 53.7382 42.6428 53.6667 43.6428C53.0953 50.7142 47.0953 56.2379 40 56.2379Z" fill="#171717"/>
</svg>
