<svg width="80" height="80" viewBox="0 0 80 80" fill="none" xmlns="http://www.w3.org/2000/svg">
<rect x="1.14286" y="1.14286" width="77.7143" height="77.7143" rx="17.1429" stroke="black" stroke-opacity="0.4" stroke-width="2.28571"/>
<path d="M53.9287 63.125H28.9287C19.8037 63.125 14.5537 57.875 14.5537 48.75V31.25C14.5537 22.125 19.8037 16.875 28.9287 16.875H46.4287C47.4537 16.875 48.3037 17.725 48.3037 18.75C48.3037 19.775 47.4537 20.625 46.4287 20.625H28.9287C21.7787 20.625 18.3037 24.1 18.3037 31.25V48.75C18.3037 55.9 21.7787 59.375 28.9287 59.375H53.9287C61.0787 59.375 64.5537 55.9 64.5537 48.75V36.25C64.5537 35.225 65.4037 34.375 66.4287 34.375C67.4537 34.375 68.3037 35.225 68.3037 36.25V48.75C68.3037 57.875 63.0537 63.125 53.9287 63.125Z" fill="#171717"/>
<path d="M41.4282 42.1749C39.3282 42.1749 37.2032 41.5249 35.5782 40.1999L27.7532 33.9499C26.9532 33.2999 26.8032 32.1249 27.4532 31.3249C28.1032 30.5249 29.2781 30.3749 30.0781 31.0249L37.9031 37.2749C39.8031 38.7999 43.0281 38.7999 44.9281 37.2749L47.8781 34.9249C48.6781 34.2749 49.8782 34.3999 50.5032 35.2249C51.1532 36.0249 51.0282 37.2249 50.2032 37.8499L47.2531 40.1999C45.6531 41.5249 43.5282 42.1749 41.4282 42.1749Z" fill="#171717"/>
<path d="M60.1787 31.875C55.7037 31.875 52.0537 28.225 52.0537 23.75C52.0537 19.275 55.7037 15.625 60.1787 15.625C64.6537 15.625 68.3037 19.275 68.3037 23.75C68.3037 28.225 64.6537 31.875 60.1787 31.875ZM60.1787 19.375C57.7787 19.375 55.8037 21.35 55.8037 23.75C55.8037 26.15 57.7787 28.125 60.1787 28.125C62.5787 28.125 64.5537 26.15 64.5537 23.75C64.5537 21.35 62.5787 19.375 60.1787 19.375Z" fill="#171717"/>
</svg>
