<svg width="80" height="80" viewBox="0 0 80 80" fill="none" xmlns="http://www.w3.org/2000/svg">
<rect x="1.14286" y="1.14286" width="77.7143" height="77.7143" rx="17.1429" stroke="black" stroke-opacity="0.4" stroke-width="2.28571"/>
<path d="M38.9787 60.625H30.1787C28.3037 60.625 26.9287 60.55 25.7537 60.375C17.4287 59.45 15.8037 54.5 15.8037 46.25V33.75C15.8037 25.5 17.4537 20.525 25.8287 19.6C26.9287 19.45 28.3037 19.375 30.1787 19.375H38.8287C39.8537 19.375 40.7037 20.225 40.7037 21.25C40.7037 22.275 39.8537 23.125 38.8287 23.125H30.1787C28.4787 23.125 27.2787 23.2 26.3037 23.325C21.2287 23.875 19.5537 25.475 19.5537 33.75V46.25C19.5537 54.525 21.2287 56.1 26.2287 56.675C27.2787 56.825 28.4787 56.875 30.1787 56.875H38.9787C40.0037 56.875 40.8537 57.725 40.8537 58.75C40.8537 59.775 40.0037 60.625 38.9787 60.625Z" fill="#171717"/>
<path d="M52.6785 60.625H48.9785C47.9535 60.625 47.1035 59.775 47.1035 58.75C47.1035 57.725 47.9535 56.875 48.9785 56.875H52.6785C54.3785 56.875 55.5785 56.8 56.5535 56.675C61.6285 56.125 63.3035 54.525 63.3035 46.25V33.75C63.3035 25.475 61.6285 23.9 56.6285 23.325C55.5785 23.175 54.3785 23.125 52.6785 23.125H48.9785C47.9535 23.125 47.1035 22.275 47.1035 21.25C47.1035 20.225 47.9535 19.375 48.9785 19.375H52.6785C54.5535 19.375 55.9285 19.45 57.1035 19.625C65.4285 20.55 67.0535 25.5 67.0535 33.75V46.25C67.0535 54.5 65.4035 59.475 57.0285 60.4C55.9285 60.55 54.5535 60.625 52.6785 60.625Z" fill="#171717"/>
<path d="M48.9287 66.875C47.9037 66.875 47.0537 66.025 47.0537 65V15C47.0537 13.975 47.9037 13.125 48.9287 13.125C49.9537 13.125 50.8037 13.975 50.8037 15V65C50.8037 66.025 49.9537 66.875 48.9287 66.875Z" fill="#171717"/>
<path d="M28.1787 42.5C27.8537 42.5 27.5287 42.425 27.2287 42.3C26.9287 42.175 26.6537 42 26.4037 41.775C26.1787 41.525 25.9787 41.25 25.8537 40.95C25.7287 40.65 25.6787 40.325 25.6787 40C25.6787 39.35 25.9537 38.7 26.4037 38.225C27.3287 37.3 29.0037 37.3 29.9537 38.225C30.4037 38.7 30.6787 39.35 30.6787 40C30.6787 40.325 30.6037 40.65 30.4787 40.95C30.3537 41.25 30.1787 41.525 29.9537 41.775C29.7037 42 29.4287 42.175 29.1287 42.3C28.8287 42.425 28.5037 42.5 28.1787 42.5Z" fill="#171717"/>
<path d="M38.1787 42.5C37.8537 42.5 37.5287 42.425 37.2287 42.3C36.9287 42.175 36.6537 42 36.4037 41.775C36.1787 41.525 36.0037 41.25 35.8537 40.95C35.7537 40.65 35.6787 40.325 35.6787 40C35.6787 39.35 35.9537 38.7 36.4037 38.225C37.3287 37.3 39.0287 37.3 39.9537 38.225C40.4037 38.7 40.6787 39.35 40.6787 40C40.6787 40.325 40.6037 40.65 40.4787 40.95C40.3537 41.25 40.1787 41.525 39.9537 41.775C39.7037 42 39.4287 42.175 39.1287 42.3C38.8287 42.425 38.5037 42.5 38.1787 42.5Z" fill="#171717"/>
</svg>
