<svg width="226" height="38" viewBox="0 0 226 38" fill="none" xmlns="http://www.w3.org/2000/svg">
<path d="M34.7373 10.92V15.464H42.0653V19.688H34.7373V24.616H43.0253V29H29.2653V6.536H43.0253V10.92H34.7373ZM45.4898 20.04C45.4898 18.2053 45.8311 16.5947 46.5138 15.208C47.2178 13.8213 48.1671 12.7547 49.3618 12.008C50.5564 11.2613 51.8898 10.888 53.3618 10.888C54.6204 10.888 55.7191 11.144 56.6578 11.656C57.6178 12.168 58.3538 12.84 58.8658 13.672V11.144H64.3378V29H58.8658V26.472C58.3324 27.304 57.5858 27.976 56.6258 28.488C55.6871 29 54.5884 29.256 53.3298 29.256C51.8791 29.256 50.5564 28.8827 49.3618 28.136C48.1671 27.368 47.2178 26.2907 46.5138 24.904C45.8311 23.496 45.4898 21.8747 45.4898 20.04ZM58.8658 20.072C58.8658 18.7067 58.4818 17.6293 57.7138 16.84C56.9671 16.0507 56.0498 15.656 54.9618 15.656C53.8738 15.656 52.9458 16.0507 52.1778 16.84C51.4311 17.608 51.0578 18.6747 51.0578 20.04C51.0578 21.4053 51.4311 22.4933 52.1778 23.304C52.9458 24.0933 53.8738 24.488 54.9618 24.488C56.0498 24.488 56.9671 24.0933 57.7138 23.304C58.4818 22.5147 58.8658 21.4373 58.8658 20.072ZM75.5605 29.256C74.0032 29.256 72.6165 28.9893 71.4005 28.456C70.1845 27.9227 69.2245 27.1973 68.5205 26.28C67.8165 25.3413 67.4218 24.296 67.3365 23.144H72.7445C72.8085 23.7627 73.0965 24.264 73.6085 24.648C74.1205 25.032 74.7498 25.224 75.4965 25.224C76.1792 25.224 76.7018 25.096 77.0645 24.84C77.4485 24.5627 77.6405 24.2107 77.6405 23.784C77.6405 23.272 77.3738 22.8987 76.8405 22.664C76.3072 22.408 75.4432 22.1307 74.2485 21.832C72.9685 21.5333 71.9018 21.224 71.0485 20.904C70.1952 20.5627 69.4592 20.04 68.8405 19.336C68.2218 18.6107 67.9125 17.64 67.9125 16.424C67.9125 15.4 68.1898 14.472 68.7445 13.64C69.3205 12.7867 70.1525 12.1147 71.2405 11.624C72.3498 11.1333 73.6618 10.888 75.1765 10.888C77.4165 10.888 79.1765 11.4427 80.4565 12.552C81.7578 13.6613 82.5045 15.1333 82.6965 16.968H77.6405C77.5552 16.3493 77.2778 15.8587 76.8085 15.496C76.3605 15.1333 75.7632 14.952 75.0165 14.952C74.3765 14.952 73.8858 15.08 73.5445 15.336C73.2032 15.5707 73.0325 15.9013 73.0325 16.328C73.0325 16.84 73.2992 17.224 73.8325 17.48C74.3872 17.736 75.2405 17.992 76.3925 18.248C77.7152 18.5893 78.7925 18.9307 79.6245 19.272C80.4565 19.592 81.1818 20.1253 81.8005 20.872C82.4405 21.5973 82.7712 22.5787 82.7925 23.816C82.7925 24.8613 82.4938 25.8 81.8965 26.632C81.3205 27.4427 80.4778 28.0827 79.3685 28.552C78.2805 29.0213 77.0112 29.256 75.5605 29.256ZM104.38 11.144L93.1803 37.48H87.2923L91.3883 28.392L84.1242 11.144H90.2363L94.3643 22.312L98.4603 11.144H104.38ZM137.023 10.952C139.071 10.952 140.713 11.6347 141.951 13C143.188 14.344 143.807 16.2 143.807 18.568V29H138.367V19.304C138.367 18.1093 138.057 17.1813 137.439 16.52C136.82 15.8587 135.988 15.528 134.943 15.528C133.897 15.528 133.065 15.8587 132.447 16.52C131.828 17.1813 131.519 18.1093 131.519 19.304V29H126.047V5.32H131.519V13.544C132.073 12.7547 132.831 12.1253 133.791 11.656C134.751 11.1867 135.828 10.952 137.023 10.952ZM155.737 29.256C153.988 29.256 152.409 28.8827 151.001 28.136C149.614 27.3893 148.516 26.3227 147.705 24.936C146.916 23.5493 146.521 21.928 146.521 20.072C146.521 18.2373 146.926 16.6267 147.737 15.24C148.548 13.832 149.657 12.7547 151.065 12.008C152.473 11.2613 154.052 10.888 155.801 10.888C157.55 10.888 159.129 11.2613 160.537 12.008C161.945 12.7547 163.054 13.832 163.865 15.24C164.676 16.6267 165.081 18.2373 165.081 20.072C165.081 21.9067 164.665 23.528 163.833 24.936C163.022 26.3227 161.902 27.3893 160.473 28.136C159.065 28.8827 157.486 29.256 155.737 29.256ZM155.737 24.52C156.782 24.52 157.668 24.136 158.393 23.368C159.14 22.6 159.513 21.5013 159.513 20.072C159.513 18.6427 159.15 17.544 158.425 16.776C157.721 16.008 156.846 15.624 155.801 15.624C154.734 15.624 153.849 16.008 153.145 16.776C152.441 17.5227 152.089 18.6213 152.089 20.072C152.089 21.5013 152.43 22.6 153.113 23.368C153.817 24.136 154.692 24.52 155.737 24.52ZM173.456 13.672C173.989 12.84 174.725 12.168 175.664 11.656C176.603 11.144 177.701 10.888 178.96 10.888C180.432 10.888 181.765 11.2613 182.96 12.008C184.155 12.7547 185.093 13.8213 185.776 15.208C186.48 16.5947 186.832 18.2053 186.832 20.04C186.832 21.8747 186.48 23.496 185.776 24.904C185.093 26.2907 184.155 27.368 182.96 28.136C181.765 28.8827 180.432 29.256 178.96 29.256C177.723 29.256 176.624 29 175.664 28.488C174.725 27.976 173.989 27.3147 173.456 26.504V37.512H167.984V11.144H173.456V13.672ZM181.264 20.04C181.264 18.6747 180.88 17.608 180.112 16.84C179.365 16.0507 178.437 15.656 177.328 15.656C176.24 15.656 175.312 16.0507 174.544 16.84C173.797 17.6293 173.424 18.7067 173.424 20.072C173.424 21.4373 173.797 22.5147 174.544 23.304C175.312 24.0933 176.24 24.488 177.328 24.488C178.416 24.488 179.344 24.0933 180.112 23.304C180.88 22.4933 181.264 21.4053 181.264 20.04Z" fill="black"/>
<path d="M114.487 29.224C112.844 29.224 111.372 28.9573 110.071 28.424C108.77 27.8907 107.724 27.1013 106.935 26.056C106.167 25.0107 105.762 23.752 105.719 22.28H111.543C111.628 23.112 111.916 23.752 112.407 24.2C112.898 24.6267 113.538 24.84 114.327 24.84C115.138 24.84 115.778 24.6587 116.247 24.296C116.716 23.912 116.951 23.3893 116.951 22.728C116.951 22.1733 116.759 21.7147 116.375 21.352C116.012 20.9893 115.554 20.6907 114.999 20.456C114.466 20.2213 113.698 19.9547 112.695 19.656C111.244 19.208 110.06 18.76 109.143 18.312C108.226 17.864 107.436 17.2027 106.775 16.328C106.114 15.4533 105.783 14.312 105.783 12.904C105.783 10.8133 106.54 9.18133 108.055 8.008C109.57 6.81333 111.543 6.216 113.975 6.216C116.45 6.216 118.444 6.81333 119.959 8.008C121.474 9.18133 122.284 10.824 122.391 12.936H116.471C116.428 12.2107 116.162 11.6453 115.671 11.24C115.18 10.8133 114.551 10.6 113.783 10.6C113.122 10.6 112.588 10.7813 112.183 11.144C111.778 11.4853 111.575 11.9867 111.575 12.648C111.575 13.3733 111.916 13.9387 112.599 14.344C113.282 14.7493 114.348 15.1867 115.799 15.656C117.25 16.1467 118.423 16.616 119.319 17.064C120.236 17.512 121.026 18.1627 121.687 19.016C122.348 19.8693 122.679 20.968 122.679 22.312C122.679 23.592 122.348 24.7547 121.687 25.8C121.047 26.8453 120.108 27.6773 118.871 28.296C117.634 28.9147 116.172 29.224 114.487 29.224Z" fill="#0D99FF"/>
<path d="M207.086 32.0028C208.697 32.0028 210.003 30.697 210.003 29.0862C210.003 27.4755 208.697 26.1697 207.086 26.1697C205.475 26.1697 204.17 27.4755 204.17 29.0862C204.17 30.697 205.475 32.0028 207.086 32.0028Z" stroke="#0D99FF" stroke-width="1.5" stroke-linecap="round" stroke-linejoin="round"/>
<path d="M219.793 32.0028C221.404 32.0028 222.71 30.697 222.71 29.0862C222.71 27.4755 221.404 26.1697 219.793 26.1697C218.182 26.1697 216.876 27.4755 216.876 29.0862C216.876 30.697 218.182 32.0028 219.793 32.0028Z" stroke="#0D99FF" stroke-width="1.5" stroke-linecap="round" stroke-linejoin="round"/>
<path d="M200.326 5.9494L203.772 16.8611C204.302 18.538 204.566 19.3764 205.075 19.9971C205.521 20.5458 206.102 20.9693 206.759 21.2316C207.505 21.5283 208.382 21.5283 210.142 21.5283H216.751C218.511 21.5283 219.388 21.5283 220.133 21.2316C220.791 20.9693 221.371 20.5458 221.818 19.9971C222.326 19.3764 222.59 18.538 223.121 16.8611L223.822 14.639L224.234 13.3256L224.801 11.5253C225.004 10.8832 225.052 10.2024 224.943 9.53805C224.833 8.87374 224.569 8.24458 224.171 7.70157C223.772 7.15855 223.252 6.71695 222.652 6.41253C222.051 6.10812 221.387 5.94945 220.714 5.9494H200.326ZM200.326 5.9494L200.307 5.88596C200.234 5.64344 200.154 5.40328 200.067 5.16582C199.72 4.28716 199.131 3.52464 198.369 2.96638C197.607 2.40811 196.702 2.07688 195.76 2.01096C195.583 1.99724 195.389 1.99724 195 1.99724" stroke="#0D99FF" stroke-width="1.5" stroke-linecap="round" stroke-linejoin="round"/>
</svg>
